<svg version="1.1" id="Layer_1" xmlns="http://www.w3.org/2000/svg" xmlns:xlink="http://www.w3.org/1999/xlink" x="0px" y="0px"
	 width="100%" viewBox="0 0 1056 992" enable-background="new 0 0 1056 992" xml:space="preserve">
<path fill="#FCFDFD" opacity="1.000000" stroke="none" 
	d="
M939.000000,993.000000 
	C626.038086,993.000000 313.576233,993.000000 1.057165,993.000000 
	C1.057165,662.411804 1.057165,331.823547 1.057165,1.117652 
	C352.878601,1.117652 704.757202,1.117652 1056.817871,1.117652 
	C1056.817871,331.666565 1056.817871,662.333313 1056.817871,993.000000 
	C1017.823425,993.000000 978.661682,993.000000 939.000000,993.000000 
M263.017975,477.572662 
	C264.278046,474.483246 265.538116,471.393829 266.798187,468.304413 
	C267.270386,468.307922 267.742584,468.311432 268.214752,468.314941 
	C268.947266,470.184784 269.794556,472.018707 270.392639,473.930603 
	C273.160492,482.778809 278.898804,489.235077 288.015656,490.354767 
	C297.304993,491.495667 306.843536,490.607025 316.788086,490.607025 
	C315.667572,472.901459 308.256836,459.344299 293.216736,450.940430 
	C275.394745,440.982086 257.103577,440.962677 239.800888,452.293579 
	C226.367020,461.090942 219.023270,473.771881 218.748779,490.688904 
	C226.878555,490.688904 234.502151,490.647461 242.125092,490.699463 
	C251.557129,490.763763 258.268799,486.406250 263.017975,477.572662 
M280.761108,498.222321 
	C277.610199,501.982086 272.487732,505.372681 271.700806,509.575134 
	C269.807983,519.683716 269.946960,530.172791 269.235443,540.976196 
	C282.028870,540.976196 293.503082,541.170227 304.966064,540.895569 
	C310.830688,540.755066 316.307068,536.075134 316.554718,530.335205 
	C317.053680,518.769714 316.703247,507.167542 316.703247,495.096680 
	C309.160950,495.096680 302.022644,494.765533 294.933990,495.215851 
	C290.387756,495.504700 285.914673,496.945435 280.761108,498.222321 
M240.521957,540.950134 
	C248.640396,540.950134 256.758820,540.950134 264.891876,540.950134 
	C264.891876,531.718750 265.422211,522.891418 264.736053,514.159729 
	C264.106262,506.144867 259.377869,499.919434 251.911469,497.036224 
	C241.072159,492.850616 229.708176,495.802795 218.192169,495.103455 
	C218.192169,503.788055 218.205795,511.595459 218.189423,519.402771 
	C218.150894,537.773071 221.242172,540.899780 240.521957,540.950134 
M412.101318,515.421509 
	C414.943176,515.705017 414.765106,513.843811 414.748718,511.888245 
	C414.679047,503.555969 414.689240,495.223053 414.679260,486.890350 
	C414.671722,480.626770 414.677795,474.363190 414.677795,468.186584 
	C401.824738,466.583221 401.826538,466.583893 397.666687,477.611389 
	C396.902802,479.636383 396.144379,481.664032 395.336670,483.671661 
	C393.261414,488.829773 391.159882,493.977386 388.528259,500.461121 
	C384.443787,489.880615 381.004547,480.701904 377.298981,471.632019 
	C376.664642,470.079437 375.032654,468.084595 373.619659,467.867371 
	C370.093842,467.325348 366.428802,467.688751 362.733398,467.688751 
	C362.733398,483.915955 362.733398,499.482483 362.733398,514.993591 
	C366.293396,514.993591 369.512421,514.993591 373.232483,514.993591 
	C373.232483,505.605286 373.232483,496.586426 373.232483,487.567596 
	C374.890045,488.723022 375.629791,490.101807 376.202789,491.546783 
	C378.963684,498.509460 381.505707,505.567505 384.551849,512.401611 
	C385.195953,513.846680 387.557312,515.105042 389.257935,515.297607 
	C390.398102,515.426819 392.388153,513.784119 392.932251,512.487122 
	C395.828827,505.582489 398.368713,498.528839 401.081360,491.545898 
	C401.684784,489.992432 402.486450,488.515991 403.196838,487.004089 
	C403.583282,487.128143 403.969727,487.252197 404.356171,487.376221 
	C404.356171,496.609467 404.356171,505.842712 404.356171,515.429932 
	C406.949799,515.429932 409.089142,515.429932 412.101318,515.421509 
M629.284241,504.810974 
	C629.777161,502.977814 630.270081,501.144684 630.862305,498.942352 
	C625.530273,498.979858 621.333923,497.909729 617.773193,503.287506 
	C614.014465,508.964355 604.010132,506.970093 601.108093,500.568024 
	C598.459473,494.724976 598.212097,488.574249 601.060791,482.660126 
	C604.190369,476.162506 614.893311,474.406311 618.113159,480.443817 
	C621.547852,486.884308 626.149719,484.737152 630.929810,484.881683 
	C629.577026,475.353119 624.422302,469.754639 615.508789,467.767853 
	C606.182251,465.688965 596.903259,469.029236 592.269226,476.532043 
	C586.689209,485.566467 586.309875,495.024994 590.742065,504.686157 
	C594.568542,513.026611 601.648254,516.045227 610.186096,516.186584 
	C618.429810,516.323120 625.145996,513.295959 629.284241,504.810974 
M784.831604,500.429626 
	C786.566467,489.718719 781.244019,481.437927 771.691406,479.985687 
	C761.773865,478.478027 753.354675,484.629791 751.882446,494.459808 
	C750.119812,506.228973 755.841064,514.799622 766.314636,516.080017 
	C775.490356,517.201843 782.951111,512.531982 783.974426,503.664368 
	C779.677185,504.955383 775.796692,505.746399 772.238342,507.283356 
	C767.594116,509.289337 763.524536,507.326935 762.286072,500.862976 
	C769.708069,500.862976 776.928406,500.862976 784.831604,500.429626 
M746.132751,490.403259 
	C744.125610,479.311096 735.434998,476.631165 724.570129,483.884613 
	C722.870300,477.104431 717.943237,481.437744 714.061646,480.333344 
	C714.061646,492.310608 714.061646,503.722260 714.061646,515.330200 
	C717.462830,515.330200 720.582153,515.330200 724.237915,515.330200 
	C724.237915,508.969940 724.281250,502.677246 724.222351,496.385498 
	C724.184204,492.307892 725.268738,488.939117 729.868530,488.397583 
	C733.660278,487.951172 735.946533,491.014374 736.014221,496.311981 
	C736.094177,502.570374 736.033020,508.830566 736.033020,515.142090 
	C739.816650,515.142090 743.017090,515.142090 746.215027,515.142090 
	C746.215027,506.889709 746.215027,499.072937 746.132751,490.403259 
M556.887451,502.414154 
	C557.832031,494.585968 556.940430,487.270294 549.759338,482.509003 
	C540.939880,476.661469 528.765442,479.599365 524.239380,488.361450 
	C519.316467,497.891785 523.391174,511.289734 532.333801,514.976501 
	C542.771667,519.279724 553.069092,514.304932 556.887451,502.414154 
M655.674377,516.063477 
	C666.237610,513.268616 670.875366,506.620361 669.731079,495.912994 
	C668.587769,485.214172 661.454712,479.127472 650.826660,479.781677 
	C640.888855,480.393372 634.550537,487.768646 634.871582,498.347076 
	C635.252625,510.904053 641.864563,516.797607 655.674377,516.063477 
M443.158173,480.284698 
	C435.599091,478.696564 428.744324,479.769257 424.061462,486.496368 
	C419.107452,493.613037 419.599457,501.288818 423.334473,508.722870 
	C426.133728,514.294312 433.299255,517.197754 440.561951,516.117432 
	C447.059875,515.150818 451.773621,511.867737 454.321686,504.978943 
	C449.766724,504.520782 446.046814,503.535400 442.180389,506.586334 
	C437.627808,510.178680 432.976990,507.699097 431.282074,500.824524 
	C439.127228,500.824524 446.836945,500.824524 454.438385,500.824524 
	C455.774078,491.087891 452.080109,484.266571 443.158173,480.284698 
M492.872925,509.330811 
	C492.709564,502.843323 492.891632,496.323425 492.287231,489.877289 
	C491.662109,483.210022 487.008118,479.377228 480.339783,479.908569 
	C477.349365,480.146851 474.464050,481.704346 471.271179,482.748108 
	C468.871429,477.837494 464.400604,480.707397 460.365753,480.477570 
	C460.365753,492.353546 460.365753,503.863922 460.365753,515.216797 
	C464.057861,515.216797 467.303009,515.216797 470.692261,515.216797 
	C470.692261,508.663361 470.790070,502.510345 470.658386,496.362274 
	C470.568451,492.162903 471.863403,489.017822 476.377472,488.446136 
	C480.096954,487.975037 482.064209,490.676300 482.117096,495.986664 
	C482.180939,502.401306 482.132263,508.817047 482.132263,515.150879 
	C486.174896,515.150879 489.401703,515.150879 492.872711,515.150879 
	C492.872711,513.253784 492.872711,511.764221 492.872925,509.330811 
M707.342163,513.714905 
	C707.234741,505.884155 707.356201,498.041595 706.952637,490.226135 
	C706.580017,483.009674 701.730164,478.966095 694.562256,479.859222 
	C691.717834,480.213623 689.022034,481.760071 686.103333,482.820160 
	C683.831726,477.527802 679.259827,480.577362 675.168091,480.264374 
	C675.168091,492.047699 675.168091,503.483063 675.168091,515.032349 
	C678.615662,515.032349 681.844360,515.032349 685.280579,515.032349 
	C685.280579,508.533569 685.199890,502.385498 685.306091,496.240692 
	C685.390869,491.330902 688.076111,487.870941 691.612061,488.248444 
	C696.470703,488.767212 696.981140,492.385468 696.933716,496.351349 
	C696.858887,502.601746 696.913757,508.853729 696.913757,515.770325 
	C700.804077,515.311096 704.004089,514.933350 707.342163,513.714905 
M797.956116,481.350220 
	C790.171082,486.183380 787.175659,495.950989 790.561218,505.463501 
	C793.238708,512.986511 800.124878,517.178162 808.157104,516.174072 
	C816.029419,515.190002 820.838074,510.362091 821.588318,502.149109 
	C817.588623,502.682281 813.428040,500.331635 810.227234,505.288818 
	C808.076965,508.619080 803.696777,507.880676 801.474243,504.509705 
	C799.206787,501.070770 799.388184,494.004181 801.828064,490.724548 
	C804.073547,487.706207 808.140869,486.952911 809.778992,489.947418 
	C812.868469,495.595001 817.270508,492.499786 821.897522,493.218109 
	C821.119629,490.777710 820.784180,488.988495 820.007874,487.416992 
	C816.586792,480.490814 808.154846,478.020691 797.956116,481.350220 
M506.388031,514.301453 
	C510.289825,514.984436 514.191650,515.667419 518.201050,516.369263 
	C518.201050,512.504517 518.201050,509.919739 518.201050,508.826569 
	C515.580017,506.628265 512.650085,505.375519 512.447632,503.777313 
	C511.815979,498.790405 512.215881,493.672852 512.215881,488.569305 
	C514.787842,488.316681 516.714233,488.127502 518.439575,487.958038 
	C518.439575,485.273773 518.439575,482.879395 518.439575,480.452271 
	C516.237549,480.245239 514.442932,480.076508 512.445679,479.888733 
	C512.205811,477.190430 511.975922,474.603912 511.758850,472.161926 
	C508.215973,472.161926 504.963318,472.161926 501.871246,472.161926 
	C500.450500,475.391327 503.324493,480.267914 497.603027,480.917389 
	C497.957886,483.351166 497.712189,487.519562 498.781433,487.889740 
	C501.849915,488.952057 501.407196,490.897430 501.420746,492.946228 
	C501.446014,496.765015 500.776947,500.698151 501.492615,504.370148 
	C502.142731,507.705841 504.248901,510.757751 506.388031,514.301453 
M845.633667,480.568787 
	C843.858826,480.386475 842.083984,480.204163 840.113708,480.001770 
	C839.918579,477.234650 839.737366,474.665497 839.559082,472.136993 
	C835.975281,472.136993 832.728333,472.136993 829.349365,472.136993 
	C829.160889,474.938141 828.995483,477.395721 828.834229,479.792542 
	C827.364502,480.138947 826.142456,480.426971 824.172546,480.891235 
	C824.972656,483.545776 825.099121,487.422455 826.526855,487.982605 
	C829.496826,489.147888 829.128540,490.935913 829.149475,493.002197 
	C829.178101,495.830475 829.101562,498.659912 829.138000,501.487976 
	C829.293152,513.510254 833.662292,517.175415 845.896057,515.428223 
	C845.896057,512.720581 845.896057,509.998962 845.896057,507.277344 
	C845.459839,507.545868 845.023560,507.814423 844.587341,508.082947 
	C843.058594,506.458527 840.449280,504.977417 840.211243,503.181854 
	C839.588257,498.483429 840.001221,493.647675 840.001221,488.791443 
	C842.362000,488.515900 844.256165,488.294769 846.095459,488.080078 
	C846.095459,485.542175 846.095459,483.389191 845.633667,480.568787 
M572.997314,481.787598 
	C569.793091,480.969666 566.588867,480.151764 562.801697,479.185028 
	C562.801697,492.165070 562.801697,503.690247 562.801697,515.152710 
	C566.339111,515.152710 569.438904,515.152710 572.794495,515.152710 
	C572.794495,508.827820 572.754272,502.847900 572.806702,496.868835 
	C572.851807,491.721710 575.209229,489.295654 580.376282,488.965881 
	C581.510010,488.893524 582.652344,488.955322 583.842773,488.955322 
	C583.842773,485.837921 583.842773,483.071747 583.842773,478.849701 
	C579.901489,480.227783 576.649536,481.364838 572.997314,481.787598 
M310.370300,443.216766 
	C306.293945,446.639282 306.033081,450.778625 310.015106,452.049377 
	C311.596527,452.553986 313.994812,451.988129 315.409760,451.017883 
	C316.404938,450.335449 317.195587,447.418671 316.628601,446.773987 
	C315.195038,445.144012 312.943848,444.233124 310.370300,443.216766 
z"/>
<path fill="#AB4334" opacity="1.000000" stroke="none" 
	d="
M262.860962,477.910828 
	C258.268799,486.406250 251.557129,490.763763 242.125092,490.699463 
	C234.502151,490.647461 226.878555,490.688904 218.748779,490.688904 
	C219.023270,473.771881 226.367020,461.090942 239.800888,452.293579 
	C257.103577,440.962677 275.394745,440.982086 293.216736,450.940430 
	C308.256836,459.344299 315.667572,472.901459 316.788086,490.607025 
	C306.843536,490.607025 297.304993,491.495667 288.015656,490.354767 
	C278.898804,489.235077 273.160492,482.778809 270.392639,473.930603 
	C269.794556,472.018707 268.947266,470.184784 268.214752,468.314941 
	C267.742584,468.311432 267.270386,468.307922 266.798187,468.304413 
	C265.538116,471.393829 264.278046,474.483246 262.860962,477.910828 
z"/>
<path fill="#AB4334" opacity="1.000000" stroke="none" 
	d="
M281.084961,498.046082 
	C285.914673,496.945435 290.387756,495.504700 294.933990,495.215851 
	C302.022644,494.765533 309.160950,495.096680 316.703247,495.096680 
	C316.703247,507.167542 317.053680,518.769714 316.554718,530.335205 
	C316.307068,536.075134 310.830688,540.755066 304.966064,540.895569 
	C293.503082,541.170227 282.028870,540.976196 269.235443,540.976196 
	C269.946960,530.172791 269.807983,519.683716 271.700806,509.575134 
	C272.487732,505.372681 277.610199,501.982086 281.084961,498.046082 
z"/>
<path fill="#AB4334" opacity="1.000000" stroke="none" 
	d="
M240.027618,540.949341 
	C221.242172,540.899780 218.150894,537.773071 218.189423,519.402771 
	C218.205795,511.595459 218.192169,503.788055 218.192169,495.103455 
	C229.708176,495.802795 241.072159,492.850616 251.911469,497.036224 
	C259.377869,499.919434 264.106262,506.144867 264.736053,514.159729 
	C265.422211,522.891418 264.891876,531.718750 264.891876,540.950134 
	C256.758820,540.950134 248.640396,540.950134 240.027618,540.949341 
z"/>
<path fill="#A83E36" opacity="1.000000" stroke="none" 
	d="
M411.664886,515.425720 
	C409.089142,515.429932 406.949799,515.429932 404.356171,515.429932 
	C404.356171,505.842712 404.356171,496.609467 404.356171,487.376221 
	C403.969727,487.252197 403.583282,487.128143 403.196838,487.004089 
	C402.486450,488.515991 401.684784,489.992432 401.081360,491.545898 
	C398.368713,498.528839 395.828827,505.582489 392.932251,512.487122 
	C392.388153,513.784119 390.398102,515.426819 389.257935,515.297607 
	C387.557312,515.105042 385.195953,513.846680 384.551849,512.401611 
	C381.505707,505.567505 378.963684,498.509460 376.202789,491.546783 
	C375.629791,490.101807 374.890045,488.723022 373.232483,487.567596 
	C373.232483,496.586426 373.232483,505.605286 373.232483,514.993591 
	C369.512421,514.993591 366.293396,514.993591 362.733398,514.993591 
	C362.733398,499.482483 362.733398,483.915955 362.733398,467.688751 
	C366.428802,467.688751 370.093842,467.325348 373.619659,467.867371 
	C375.032654,468.084595 376.664642,470.079437 377.298981,471.632019 
	C381.004547,480.701904 384.443787,489.880615 388.528259,500.461121 
	C391.159882,493.977386 393.261414,488.829773 395.336670,483.671661 
	C396.144379,481.664032 396.902802,479.636383 397.666687,477.611389 
	C401.826538,466.583893 401.824738,466.583221 414.677795,468.186584 
	C414.677795,474.363190 414.671722,480.626770 414.679260,486.890350 
	C414.689240,495.223053 414.679047,503.555969 414.748718,511.888245 
	C414.765106,513.843811 414.943176,515.705017 411.664886,515.425720 
z"/>
<path fill="#A83E36" opacity="1.000000" stroke="none" 
	d="
M629.151367,505.154663 
	C625.145996,513.295959 618.429810,516.323120 610.186096,516.186584 
	C601.648254,516.045227 594.568542,513.026611 590.742065,504.686157 
	C586.309875,495.024994 586.689209,485.566467 592.269226,476.532043 
	C596.903259,469.029236 606.182251,465.688965 615.508789,467.767853 
	C624.422302,469.754639 629.577026,475.353119 630.929810,484.881683 
	C626.149719,484.737152 621.547852,486.884308 618.113159,480.443817 
	C614.893311,474.406311 604.190369,476.162506 601.060791,482.660126 
	C598.212097,488.574249 598.459473,494.724976 601.108093,500.568024 
	C604.010132,506.970093 614.014465,508.964355 617.773193,503.287506 
	C621.333923,497.909729 625.530273,498.979858 630.862305,498.942352 
	C630.270081,501.144684 629.777161,502.977814 629.151367,505.154663 
z"/>
<path fill="#A9423B" opacity="1.000000" stroke="none" 
	d="
M784.490173,500.646301 
	C776.928406,500.862976 769.708069,500.862976 762.286072,500.862976 
	C763.524536,507.326935 767.594116,509.289337 772.238342,507.283356 
	C775.796692,505.746399 779.677185,504.955383 783.974426,503.664368 
	C782.951111,512.531982 775.490356,517.201843 766.314636,516.080017 
	C755.841064,514.799622 750.119812,506.228973 751.882446,494.459808 
	C753.354675,484.629791 761.773865,478.478027 771.691406,479.985687 
	C781.244019,481.437927 786.566467,489.718719 784.490173,500.646301 
M772.034424,494.157776 
	C772.918213,494.048950 773.801941,493.940125 774.906189,493.804138 
	C773.919861,489.975128 772.155457,487.455902 768.336731,487.928528 
	C765.169556,488.320496 762.822510,490.021423 763.143982,494.159668 
	C765.894836,494.159668 768.523804,494.159668 772.034424,494.157776 
z"/>
<path fill="#A83E36" opacity="1.000000" stroke="none" 
	d="
M746.173889,490.829712 
	C746.215027,499.072937 746.215027,506.889709 746.215027,515.142090 
	C743.017090,515.142090 739.816650,515.142090 736.033020,515.142090 
	C736.033020,508.830566 736.094177,502.570374 736.014221,496.311981 
	C735.946533,491.014374 733.660278,487.951172 729.868530,488.397583 
	C725.268738,488.939117 724.184204,492.307892 724.222351,496.385498 
	C724.281250,502.677246 724.237915,508.969940 724.237915,515.330200 
	C720.582153,515.330200 717.462830,515.330200 714.061646,515.330200 
	C714.061646,503.722260 714.061646,492.310608 714.061646,480.333344 
	C717.943237,481.437744 722.870300,477.104431 724.570129,483.884613 
	C735.434998,476.631165 744.125610,479.311096 746.173889,490.829712 
z"/>
<path fill="#A83E36" opacity="1.000000" stroke="none" 
	d="
M556.806702,502.803314 
	C553.069092,514.304932 542.771667,519.279724 532.333801,514.976501 
	C523.391174,511.289734 519.316467,497.891785 524.239380,488.361450 
	C528.765442,479.599365 540.939880,476.661469 549.759338,482.509003 
	C556.940430,487.270294 557.832031,494.585968 556.806702,502.803314 
M546.353088,496.011871 
	C545.234192,489.627960 542.091980,486.802856 537.969360,488.473999 
	C534.095215,490.044464 532.479980,494.979980 533.752014,501.021545 
	C534.499634,504.572235 536.139954,507.710907 540.070312,507.401672 
	C545.347412,506.986511 546.053711,502.508362 546.535217,498.262695 
	C546.590149,497.777924 546.490784,497.275604 546.353088,496.011871 
z"/>
<path fill="#A83E36" opacity="1.000000" stroke="none" 
	d="
M655.275269,516.120850 
	C641.864563,516.797607 635.252625,510.904053 634.871582,498.347076 
	C634.550537,487.768646 640.888855,480.393372 650.826660,479.781677 
	C661.454712,479.127472 668.587769,485.214172 669.731079,495.912994 
	C670.875366,506.620361 666.237610,513.268616 655.275269,516.120850 
M654.674011,507.218536 
	C659.254700,503.505676 660.804077,495.086273 657.052612,490.771698 
	C655.719238,489.238190 652.290039,488.346130 650.249878,488.864044 
	C646.478882,489.821411 644.918518,495.391388 646.231934,501.013519 
	C647.172668,505.040375 648.942871,508.287750 654.674011,507.218536 
z"/>
<path fill="#A83E36" opacity="1.000000" stroke="none" 
	d="
M443.518311,480.424500 
	C452.080109,484.266571 455.774078,491.087891 454.438385,500.824524 
	C446.836945,500.824524 439.127228,500.824524 431.282074,500.824524 
	C432.976990,507.699097 437.627808,510.178680 442.180389,506.586334 
	C446.046814,503.535400 449.766724,504.520782 454.321686,504.978943 
	C451.773621,511.867737 447.059875,515.150818 440.561951,516.117432 
	C433.299255,517.197754 426.133728,514.294312 423.334473,508.722870 
	C419.599457,501.288818 419.107452,493.613037 424.061462,486.496368 
	C428.744324,479.769257 435.599091,478.696564 443.518311,480.424500 
M441.165680,494.156677 
	C443.673523,494.389648 445.123199,493.108582 443.290649,491.167450 
	C441.715027,489.498474 438.935883,488.049072 436.737946,488.115906 
	C433.985168,488.199585 431.516876,490.107269 432.191101,494.156189 
	C434.961365,494.156189 437.610046,494.156189 441.165680,494.156677 
z"/>
<path fill="#A9423B" opacity="1.000000" stroke="none" 
	d="
M492.872803,509.802734 
	C492.872711,511.764221 492.872711,513.253784 492.872711,515.150879 
	C489.401703,515.150879 486.174896,515.150879 482.132263,515.150879 
	C482.132263,508.817047 482.180939,502.401306 482.117096,495.986664 
	C482.064209,490.676300 480.096954,487.975037 476.377472,488.446136 
	C471.863403,489.017822 470.568451,492.162903 470.658386,496.362274 
	C470.790070,502.510345 470.692261,508.663361 470.692261,515.216797 
	C467.303009,515.216797 464.057861,515.216797 460.365753,515.216797 
	C460.365753,503.863922 460.365753,492.353546 460.365753,480.477570 
	C464.400604,480.707397 468.871429,477.837494 471.271179,482.748108 
	C474.464050,481.704346 477.349365,480.146851 480.339783,479.908569 
	C487.008118,479.377228 491.662109,483.210022 492.287231,489.877289 
	C492.891632,496.323425 492.709564,502.843323 492.872803,509.802734 
z"/>
<path fill="#A83E36" opacity="1.000000" stroke="none" 
	d="
M707.273193,514.135254 
	C704.004089,514.933350 700.804077,515.311096 696.913757,515.770325 
	C696.913757,508.853729 696.858887,502.601746 696.933716,496.351349 
	C696.981140,492.385468 696.470703,488.767212 691.612061,488.248444 
	C688.076111,487.870941 685.390869,491.330902 685.306091,496.240692 
	C685.199890,502.385498 685.280579,508.533569 685.280579,515.032349 
	C681.844360,515.032349 678.615662,515.032349 675.168091,515.032349 
	C675.168091,503.483063 675.168091,492.047699 675.168091,480.264374 
	C679.259827,480.577362 683.831726,477.527802 686.103333,482.820160 
	C689.022034,481.760071 691.717834,480.213623 694.562256,479.859222 
	C701.730164,478.966095 706.580017,483.009674 706.952637,490.226135 
	C707.356201,498.041595 707.234741,505.884155 707.273193,514.135254 
z"/>
<path fill="#A9423B" opacity="1.000000" stroke="none" 
	d="
M798.296082,481.193146 
	C808.154846,478.020691 816.586792,480.490814 820.007874,487.416992 
	C820.784180,488.988495 821.119629,490.777710 821.897522,493.218109 
	C817.270508,492.499786 812.868469,495.595001 809.778992,489.947418 
	C808.140869,486.952911 804.073547,487.706207 801.828064,490.724548 
	C799.388184,494.004181 799.206787,501.070770 801.474243,504.509705 
	C803.696777,507.880676 808.076965,508.619080 810.227234,505.288818 
	C813.428040,500.331635 817.588623,502.682281 821.588318,502.149109 
	C820.838074,510.362091 816.029419,515.190002 808.157104,516.174072 
	C800.124878,517.178162 793.238708,512.986511 790.561218,505.463501 
	C787.175659,495.950989 790.171082,486.183380 798.296082,481.193146 
z"/>
<path fill="#A9423B" opacity="1.000000" stroke="none" 
	d="
M506.050598,514.118103 
	C504.248901,510.757751 502.142731,507.705841 501.492615,504.370148 
	C500.776947,500.698151 501.446014,496.765015 501.420746,492.946228 
	C501.407196,490.897430 501.849915,488.952057 498.781433,487.889740 
	C497.712189,487.519562 497.957886,483.351166 497.603027,480.917389 
	C503.324493,480.267914 500.450500,475.391327 501.871246,472.161926 
	C504.963318,472.161926 508.215973,472.161926 511.758850,472.161926 
	C511.975922,474.603912 512.205811,477.190430 512.445679,479.888733 
	C514.442932,480.076508 516.237549,480.245239 518.439575,480.452271 
	C518.439575,482.879395 518.439575,485.273773 518.439575,487.958038 
	C516.714233,488.127502 514.787842,488.316681 512.215881,488.569305 
	C512.215881,493.672852 511.815979,498.790405 512.447632,503.777313 
	C512.650085,505.375519 515.580017,506.628265 518.201050,508.826569 
	C518.201050,509.919739 518.201050,512.504517 518.201050,516.369263 
	C514.191650,515.667419 510.289825,514.984436 506.050598,514.118103 
z"/>
<path fill="#A9423B" opacity="1.000000" stroke="none" 
	d="
M845.864563,480.902527 
	C846.095459,483.389191 846.095459,485.542175 846.095459,488.080078 
	C844.256165,488.294769 842.362000,488.515900 840.001221,488.791443 
	C840.001221,493.647675 839.588257,498.483429 840.211243,503.181854 
	C840.449280,504.977417 843.058594,506.458527 844.587341,508.082947 
	C845.023560,507.814423 845.459839,507.545868 845.896057,507.277344 
	C845.896057,509.998962 845.896057,512.720581 845.896057,515.428223 
	C833.662292,517.175415 829.293152,513.510254 829.138000,501.487976 
	C829.101562,498.659912 829.178101,495.830475 829.149475,493.002197 
	C829.128540,490.935913 829.496826,489.147888 826.526855,487.982605 
	C825.099121,487.422455 824.972656,483.545776 824.172546,480.891235 
	C826.142456,480.426971 827.364502,480.138947 828.834229,479.792542 
	C828.995483,477.395721 829.160889,474.938141 829.349365,472.136993 
	C832.728333,472.136993 835.975281,472.136993 839.559082,472.136993 
	C839.737366,474.665497 839.918579,477.234650 840.113708,480.001770 
	C842.083984,480.204163 843.858826,480.386475 845.864563,480.902527 
z"/>
<path fill="#A9423B" opacity="1.000000" stroke="none" 
	d="
M573.197388,482.144745 
	C576.649536,481.364838 579.901489,480.227783 583.842773,478.849701 
	C583.842773,483.071747 583.842773,485.837921 583.842773,488.955322 
	C582.652344,488.955322 581.510010,488.893524 580.376282,488.965881 
	C575.209229,489.295654 572.851807,491.721710 572.806702,496.868835 
	C572.754272,502.847900 572.794495,508.827820 572.794495,515.152710 
	C569.438904,515.152710 566.339111,515.152710 562.801697,515.152710 
	C562.801697,503.690247 562.801697,492.165070 562.801697,479.185028 
	C566.588867,480.151764 569.793091,480.969666 573.197388,482.144745 
z"/>
<path fill="#A9423B" opacity="1.000000" stroke="none" 
	d="
M310.695251,443.125488 
	C312.943848,444.233124 315.195038,445.144012 316.628601,446.773987 
	C317.195587,447.418671 316.404938,450.335449 315.409760,451.017883 
	C313.994812,451.988129 311.596527,452.553986 310.015106,452.049377 
	C306.033081,450.778625 306.293945,446.639282 310.695251,443.125488 
z"/>
<path fill="#FCFDFD" opacity="1.000000" stroke="none" 
	d="
M771.593628,494.158722 
	C768.523804,494.159668 765.894836,494.159668 763.143982,494.159668 
	C762.822510,490.021423 765.169556,488.320496 768.336731,487.928528 
	C772.155457,487.455902 773.919861,489.975128 774.906189,493.804138 
	C773.801941,493.940125 772.918213,494.048950 771.593628,494.158722 
z"/>
<path fill="#FCFDFD" opacity="1.000000" stroke="none" 
	d="
M546.408020,496.396667 
	C546.490784,497.275604 546.590149,497.777924 546.535217,498.262695 
	C546.053711,502.508362 545.347412,506.986511 540.070312,507.401672 
	C536.139954,507.710907 534.499634,504.572235 533.752014,501.021545 
	C532.479980,494.979980 534.095215,490.044464 537.969360,488.473999 
	C542.091980,486.802856 545.234192,489.627960 546.408020,496.396667 
z"/>
<path fill="#FCFDFD" opacity="1.000000" stroke="none" 
	d="
M654.330994,507.370544 
	C648.942871,508.287750 647.172668,505.040375 646.231934,501.013519 
	C644.918518,495.391388 646.478882,489.821411 650.249878,488.864044 
	C652.290039,488.346130 655.719238,489.238190 657.052612,490.771698 
	C660.804077,495.086273 659.254700,503.505676 654.330994,507.370544 
z"/>
<path fill="#FCFDFD" opacity="1.000000" stroke="none" 
	d="
M440.712219,494.156433 
	C437.610046,494.156189 434.961365,494.156189 432.191101,494.156189 
	C431.516876,490.107269 433.985168,488.199585 436.737946,488.115906 
	C438.935883,488.049072 441.715027,489.498474 443.290649,491.167450 
	C445.123199,493.108582 443.673523,494.389648 440.712219,494.156433 
z"/>
</svg>